<svg xmlns="http://www.w3.org/2000/svg" xmlns:xlink="http://www.w3.org/1999/xlink" viewBox="0 0 100 100">
    <defs>
        <radialGradient xlink:href="#a" id="c" cx="158.429" cy="578.088" r="65" fx="158.429" fy="578.088" gradientTransform="matrix(0 -1.52473 1.41812 0 -793.234 349.263)" gradientUnits="userSpaceOnUse"/>
        <radialGradient xlink:href="#b" id="d" cx="147.694" cy="473.455" r="65" fx="147.694" fy="473.455" gradientTransform="matrix(.13377 .6683 -2.75471 .55172 1267.724 -352.717)" gradientUnits="userSpaceOnUse"/>
        <linearGradient id="b">
            <stop offset="0" stop-color="#3771c8"/>
            <stop offset=".128" stop-color="#3771c8"/>
            <stop offset="1" stop-color="#60f" stop-opacity="0"/>
        </linearGradient>
        <linearGradient id="a">
            <stop offset="0" stop-color="#fd5"/>
            <stop offset=".1" stop-color="#fd5"/>
            <stop offset=".5" stop-color="#ff543e"/>
            <stop offset="1" stop-color="#c837ab"/>
        </linearGradient>
    </defs>
    <path fill="url(#c)" d="M50.016 0C29.142 0 23.036.022 21.85.12c-4.284.356-6.95 1.03-9.853 2.477-2.238 1.112-4.004 2.4-5.746 4.207C3.08 10.098 1.156 14.15.461 18.968.12 21.306.022 21.783.002 33.729c-.007 3.982 0 9.222 0 16.251 0 20.864.023 26.964.123 28.149.347 4.17 1 6.793 2.385 9.662 2.645 5.493 7.698 9.616 13.65 11.155 2.062.53 4.339.823 7.261.962 1.238.054 13.859.092 26.487.092 12.629 0 25.257-.015 26.465-.077 3.384-.16 5.349-.423 7.521-.985a20.936 20.936 0 0 0 13.652-11.177c1.357-2.8 2.045-5.524 2.357-9.476.068-.862.096-14.599.096-28.318 0-13.72-.03-27.433-.098-28.294-.316-4.016-1.004-6.716-2.405-9.57-1.15-2.337-2.427-4.082-4.28-5.866-3.308-3.16-7.354-5.083-12.174-5.778C78.707.12 78.242.02 66.29 0Z"/>
    <path fill="url(#d)" d="M50.016 0C29.142 0 23.036.022 21.85.12c-4.284.356-6.95 1.03-9.853 2.477-2.238 1.112-4.004 2.4-5.746 4.207C3.08 10.098 1.156 14.15.461 18.968.12 21.306.022 21.783.002 33.729c-.007 3.982 0 9.222 0 16.251 0 20.864.023 26.964.123 28.149.347 4.17 1 6.793 2.385 9.662 2.645 5.493 7.698 9.616 13.65 11.155 2.062.53 4.339.823 7.261.962 1.238.054 13.859.092 26.487.092 12.629 0 25.257-.015 26.465-.077 3.384-.16 5.349-.423 7.521-.985a20.936 20.936 0 0 0 13.652-11.177c1.357-2.8 2.045-5.524 2.357-9.476.068-.862.096-14.599.096-28.318 0-13.72-.03-27.433-.098-28.294-.316-4.016-1.004-6.716-2.405-9.57-1.15-2.337-2.427-4.082-4.28-5.866-3.308-3.16-7.354-5.083-12.174-5.778C78.707.12 78.242.02 66.29 0Z"/>
    <path fill="#fff" d="M49.993 13.078c-10.026 0-11.284.044-15.222.223-3.93.18-6.612.803-8.96 1.716-2.427.943-4.487 2.204-6.539 4.258-2.053 2.052-3.315 4.112-4.26 6.54-.916 2.349-1.539 5.033-1.716 8.963-.176 3.938-.222 5.198-.222 15.226 0 10.029.045 11.283.223 15.222.18 3.931.803 6.615 1.715 8.963.944 2.428 2.205 4.488 4.258 6.54 2.05 2.055 4.11 3.32 6.537 4.263 2.349.913 5.032 1.535 8.961 1.715 3.938.18 5.196.223 15.22.223 10.027 0 11.282-.043 15.22-.223 3.93-.18 6.615-.802 8.964-1.715 2.427-.943 4.484-2.208 6.535-4.262 2.053-2.053 3.314-4.113 4.26-6.54.908-2.35 1.53-5.033 1.716-8.963.176-3.939.223-5.194.223-15.223 0-10.028-.047-11.287-.223-15.226-.185-3.93-.808-6.614-1.716-8.962-.946-2.429-2.207-4.489-4.26-6.541-2.054-2.054-4.107-3.316-6.538-4.258-2.353-.913-5.037-1.536-8.967-1.716-3.938-.18-5.191-.223-15.22-.223Zm-3.311 6.654h3.311c9.857 0 11.025.036 14.917.213 3.6.164 5.553.766 6.855 1.271 1.722.67 2.95 1.47 4.242 2.762 1.292 1.293 2.092 2.523 2.762 4.247.506 1.3 1.108 3.254 1.272 6.854.177 3.893.215 5.062.215 14.917 0 9.854-.038 11.024-.215 14.916-.165 3.6-.766 5.555-1.272 6.855-.669 1.723-1.47 2.95-2.762 4.242-1.292 1.292-2.519 2.092-4.242 2.762-1.3.507-3.255 1.107-6.855 1.272-3.891.177-5.06.215-14.917.215s-11.025-.038-14.917-.215c-3.6-.166-5.553-.768-6.855-1.273-1.723-.67-2.953-1.47-4.245-2.762-1.292-1.292-2.092-2.52-2.763-4.244-.505-1.3-1.107-3.254-1.271-6.855-.177-3.892-.212-5.062-.212-14.922 0-9.861.035-11.024.212-14.917.165-3.6.766-5.554 1.271-6.856.67-1.723 1.47-2.954 2.763-4.247 1.292-1.292 2.522-2.092 4.245-2.763 1.301-.508 3.256-1.108 6.855-1.273 3.406-.154 4.725-.2 11.606-.208zm23.017 6.132a4.43 4.43 0 1 0 0 8.863 4.43 4.43 0 0 0 0-8.865zM49.993 31.04c-10.47 0-18.958 8.49-18.958 18.963s8.489 18.96 18.958 18.96c10.47 0 18.955-8.487 18.955-18.96 0-10.472-8.486-18.963-18.956-18.963zm0 6.654c6.796 0 12.306 5.511 12.306 12.31 0 6.797-5.51 12.308-12.306 12.308-6.796 0-12.305-5.511-12.305-12.309 0-6.798 5.509-12.309 12.305-12.309z"/>
</svg>