<svg xmlns="http://www.w3.org/2000/svg" viewBox="0 0 100 100">
    <defs>
        <linearGradient id="b" x1="85.915" x2="86.535" y1="32.567" y2="137.092" gradientTransform="matrix(.67672 0 0 .656 -9.185 -6.668)" gradientUnits="userSpaceOnUse">
            <stop offset="0" stop-color="#57d163"/>
            <stop offset="1" stop-color="#23b33a"/>
        </linearGradient>
        <filter id="a" width="1.115" height="1.114" x="-.057" y="-.057" color-interpolation-filters="sRGB">
            <feGaussianBlur stdDeviation="3.531"/>
        </filter>
    </defs>
    <path fill="#b3b3b3" d="m54.532 138.45 2.235 1.324c9.387 5.571 20.15 8.518 31.126 8.523h.023c33.707 0 61.139-27.426 61.153-61.135.006-16.335-6.349-31.696-17.895-43.251A60.75 60.75 0 0 0 87.94 25.983c-33.733 0-61.166 27.423-61.178 61.13a60.98 60.98 0 0 0 9.349 32.535l1.455 2.312-6.179 22.558zm-40.811 23.544L24.16 123.88c-6.438-11.154-9.825-23.808-9.821-36.772.017-40.556 33.021-73.55 73.578-73.55 19.681.01 38.154 7.669 52.047 21.572 13.893 13.903 21.537 32.383 21.53 52.037-.018 40.553-33.027 73.553-73.578 73.553h-.032a73.537 73.537 0 0 1-35.159-8.954zm0 0" filter="url(#a)" transform="matrix(.60367 0 0 .58518 -3.167 -2.975)"/>
    <path fill="#fff" d="m0 98.686 7.064-25.002A49.684 48.163 0 0 1 .418 49.562C.43 22.958 22.764 1.314 50.21 1.314c13.319.007 25.82 5.03 35.221 14.151 9.402 9.12 14.575 21.243 14.57 34.136-.012 26.602-22.35 48.25-49.791 48.25h-.022c-8.332-.003-16.52-2.03-23.792-5.874Z"/>
    <path fill="url(#linearGradient1780)" d="M49.463 11.788c-20.364 0-36.924 16.047-36.931 35.772a36.812 35.684 0 0 0 5.643 19.039l.879 1.352-3.73 13.202L29.296 77.6l1.35.775c5.666 3.26 12.163 4.984 18.79 4.988h.013c20.348 0 36.908-16.05 36.916-35.775a36.673 35.55 0 0 0-10.802-25.31 36.673 35.55 0 0 0-26.1-10.491Z"/>
    <path fill="url(#b)" d="M49.813 9.881c-22.827 0-41.392 17.99-41.4 40.1a41.266 40.002 0 0 0 6.327 21.344l.984 1.517-4.18 14.798 15.662-3.982 1.513.869c6.352 3.655 13.636 5.587 21.063 5.591h.016c22.81 0 41.374-17.991 41.383-40.104a41.11 39.851 0 0 0-12.11-28.372 41.11 39.851 0 0 0-29.258-11.76Z"/>
    <path fill="#fff" fill-rule="evenodd" d="M37.574 29.382c-.932-2.008-1.914-2.049-2.8-2.084l-2.384-.028c-.83 0-2.178.302-3.317 1.509-1.14 1.207-4.355 4.124-4.355 10.057 0 5.934 4.458 11.667 5.08 12.473.62.805 8.606 13.37 21.252 18.203 10.508 4.018 12.647 3.219 14.929 3.018 2.281-.2 7.36-2.917 8.396-5.733 1.036-2.817 1.037-5.23.726-5.734-.31-.504-1.14-.804-2.385-1.408-1.245-.603-7.36-3.52-8.501-3.923-1.14-.403-1.97-.603-2.8.604-.83 1.207-3.211 3.922-3.937 4.727-.726.805-1.451.906-2.696.303-1.246-.603-5.252-1.876-10.005-5.985-3.698-3.197-6.195-7.144-6.921-8.35-.727-1.207-.077-1.86.546-2.461.559-.54 1.244-1.409 1.868-2.113.623-.703.828-1.207 1.242-2.01.414-.804.208-1.51-.104-2.112-.31-.603-2.728-6.568-3.834-8.953"/>
</svg>