<svg xmlns="http://www.w3.org/2000/svg" xml:space="preserve" viewBox="0 0 100 100">
    <path fill="#009d3d" d="m1.986 31.026 11.666 18.858 7.961 12.872a14.194 14.194 0 0 0-.128 1.807c0 7.816 6.354 14.156 14.188 14.156.442 0 .873-.029 1.304-.064l12.528 8.229 18.55 12.186c.85.558 1.87-.424 1.333-1.29L57.723 78.923l-7.95-12.855c.052-.494.081-.994.081-1.505 0-7.816-6.354-14.156-14.187-14.156-.274 0-.548.023-.816.04L21.87 41.922 3.32 29.736c-.85-.558-1.87.43-1.334 1.29Zm26.593 33.537c0-3.911 3.174-7.078 7.094-7.078 3.92 0 7.093 3.167 7.093 7.078 0 3.911-3.174 7.078-7.093 7.078-3.92-.006-7.094-3.173-7.094-7.078z"/>
    <path fill="#004187" d="M6.273 60.454 1.689 64.47l4.584 4.021c.116.86.273 1.715.465 2.552 2.709 11.866 12.592 21.03 24.84 22.698l4.03 4.574 4.025-4.574a29.436 29.436 0 0 0 10.303-3.44l5.539 3.638A35.403 35.325 0 0 1 35.609 100C15.976 100 0 84.06 0 64.47c0-7.746 2.504-14.917 6.738-20.764l3.466 5.608a29.483 29.483 0 0 0-3.931 11.14z"/>
    <path fill="#e30613" d="M64.479 71.043c.192-.837.35-1.692.466-2.552l4.583-4.021-4.583-4.016C63.15 47.367 52.749 36.99 39.639 35.204l-4.025-4.573-4.03 4.574a29.397 29.397 0 0 0-10.087 3.33l-5.562-3.656a35.448 35.448 0 0 1 19.68-5.939c19.633 0 35.608 15.94 35.608 35.53 0 7.665-2.458 14.772-6.61 20.583l-3.477-5.619a29.395 29.395 0 0 0 3.343-8.391z"/>
    <path fill="#ffe600" d="M56.721 11.245c0-.006 0-.006 0 0l2.341-5.23a1.613 1.61 0 0 1 2.155-.826c.798.355 1.165 1.302.792 2.139l-6.057 13.54v.006l-2.335 5.224a1.595 1.595 0 0 1-2.103.802c-.838-.372-1.2-1.319-.844-2.115zm-12.429 4.114.542-2.4c.221-.883 1.072-1.395 1.951-1.232.856.192 1.398 1.07 1.206 1.924l-1.631 7.264-.018.046-.53 2.354c-.192.854-1.071 1.394-1.927 1.203a1.639 1.639 0 0 1-1.235-1.947zM36.872 0c.874 0 1.614.72 1.585 1.616l.035 14.818c0 .058-.012.11-.012.169l.012 5.422c.017.906-.723 1.61-1.631 1.633-.874 0-1.613-.721-1.584-1.616l-.035-14.819c0-.058.011-.11.011-.168l-.011-5.422C35.218.726 35.964.017 36.872 0zM25.865 11.448c.85-.203 1.724.343 1.933 1.191l1.765 7.235c.006.03.006.059.012.088l.565 2.318c.204.849-.344 1.72-1.194 1.93a1.64 1.64 0 0 1-1.969-1.203l-1.741-7.189c-.006-.011 0-.029-.006-.04l-.57-2.366c-.193-.883.343-1.72 1.205-1.964Zm-10.315-.546-2.085-5.195c-.355-.837.076-1.767.915-2.116.815-.32 1.77.076 2.067.919l5.516 13.76c.006.012.006.03.011.041l2.085 5.196c.356.836-.075 1.766-.914 2.115-.815.32-1.77-.076-2.068-.918l-5.515-13.761c-.006-.012-.006-.024-.012-.041Zm-6.785 6.904c.746-.454 1.748-.198 2.202.546l3.884 6.357c.006.012.012.03.018.041l1.229 2.01c.454.745.198 1.744-.548 2.197a1.643 1.643 0 0 1-2.242-.546l-1.246-2.051-.571-.942-2.027-3.33-1.246-2.045c-.454-.785-.198-1.743.547-2.237zm50.286 8.182c0-.006.005-.006.005-.012l4.468-5.898c.565-.715 1.555-.825 2.288-.32.7.523.827 1.552.303 2.25l-4.49 5.95c-.006.012-.018.017-.023.023l-1.491 1.982c-.525.697-1.555.825-2.254.302a1.638 1.638 0 0 1-.32-2.284zM69.202 38.54l1.84-1.389c.047-.046.094-.098.152-.145l5.911-4.457c.74-.535 1.719-.372 2.29.32.53.697.372 1.714-.321 2.243l-1.852 1.4c-.047.04-.087.087-.14.128l-5.946 4.504c-.7.528-1.718.372-2.248-.326-.53-.691-.414-1.708.314-2.278zm5.335-16.062s.006-.006.012-.006l4.111-3.952a1.624 1.624 0 0 1 2.313.041c.605.628.588 1.645-.07 2.278L70.198 31.125s-.006.006-.012.006l-4.111 3.952a1.603 1.6 0 0 1-2.254-.041c-.635-.657-.618-1.668.017-2.278zm18.608 16.469-4.956 2.354c-.053.034-.105.07-.163.098L74.6 47.77a1.602 1.602 0 0 1-2.126-.756 1.602 1.602 0 0 1 .74-2.156l4.962-2.354c.052-.034.1-.07.157-.093l13.425-6.369a1.619 1.619 0 0 1 2.178.773c.373.785.035 1.738-.792 2.133zm-9.773 23.902-5.521.011c-.88 0-1.596-.709-1.596-1.586 0-.913.71-1.633 1.59-1.633l14.863-.035c.047 0 .093.012.14.012l5.515-.012c.915 0 1.637.709 1.637 1.627 0 .878-.71 1.592-1.63 1.592l-14.864.035c-.046 0-.087-.011-.134-.011zm-2.83 17.858-5.137-2.052a1.597 1.593 0 0 1-.885-2.069c.343-.848 1.275-1.249 2.085-.924l13.797 5.515c.035.012.058.035.093.047l5.131 2.051a1.612 1.612 0 0 1 .909 2.121c-.326.814-1.258 1.21-2.109.872L80.63 80.753c-.03-.011-.058-.035-.087-.046zM74.793 53.15a1.634 1.634 0 0 1 1.2-1.97l7.199-1.761c.011 0 .023 0 .029-.006l2.446-.599c.885-.197 1.73.338 1.974 1.198.21.848-.338 1.726-1.188 1.935l-7.245 1.784c-.03.006-.052.006-.082.011l-2.393.593a1.63 1.63 0 0 1-1.94-1.185zm3.268 13.79 2.405.372h.029l7.321 1.127c.897.157 1.468.97 1.363 1.86-.134.86-.973 1.464-1.84 1.33l-7.38-1.121c-.006 0-.011 0-.011-.006l-2.423-.366c-.862-.134-1.468-.97-1.334-1.836a1.652 1.649 0 0 1 1.87-1.36zm-4.485 16.655 2.027 1.435a.334.334 0 0 1 .04.023l6.04 4.283c.728.54.874 1.523.385 2.273-.507.714-1.526.871-2.243.366l-2.061-1.459-6.092-4.3c-.711-.506-.874-1.523-.367-2.238a1.63 1.63 0 0 1 2.271-.383z"/>
</svg>