<svg xmlns="http://www.w3.org/2000/svg" xml:space="preserve" id="Layer_1" x="0" y="0" version="1.1" viewBox="0 0 582.7 176.22"><style id="style2">.st0{fill:#009d3d}.st1{fill:#004187}</style><switch id="switch18" transform="translate(-13.39 -13.61)"><g id="g16"><path id="path4" d="m16.8 67 20.03 32.45L50.5 121.6c-.13 1.02-.22 2.05-.22 3.11 0 13.45 10.91 24.36 24.36 24.36.76 0 1.5-.05 2.24-.11l21.51 14.16 31.85 20.97c1.46.96 3.21-.73 2.29-2.22l-20.03-32.45-13.65-22.12c.09-.85.14-1.71.14-2.59 0-13.45-10.91-24.36-24.36-24.36-.47 0-.94.04-1.4.07L50.94 85.75 19.09 64.78c-1.46-.96-3.21.74-2.29 2.22Zm45.66 57.71c0-6.73 5.45-12.18 12.18-12.18 6.73 0 12.18 5.45 12.18 12.18 0 6.73-5.45 12.18-12.18 12.18-6.73-.01-12.18-5.46-12.18-12.18z" class="st0"/><path id="path6" d="m24.16 117.64-7.87 6.91 7.87 6.92c.2 1.48.47 2.95.8 4.39 4.65 20.42 21.62 36.19 42.65 39.06l6.92 7.87 6.91-7.87c6.35-.87 12.31-2.93 17.69-5.92l9.51 6.26a60.787 60.787 0 0 1-34.11 10.43c-33.71 0-61.14-27.43-61.14-61.14 0-13.33 4.3-25.67 11.57-35.73l5.95 9.65c-3.44 5.76-5.8 12.24-6.75 19.17z" class="st1"/><path id="path8" fill="#e30613" d="M124.1 135.86c.33-1.44.6-2.91.8-4.39l7.87-6.92-7.87-6.91c-3.08-22.52-20.94-40.38-43.45-43.45l-6.91-7.87-6.92 7.87c-6.21.85-12.04 2.85-17.32 5.73l-9.55-6.29c9.69-6.45 21.3-10.22 33.79-10.22 33.71 0 61.14 27.43 61.14 61.14 0 13.19-4.22 25.42-11.35 35.42l-5.97-9.67c2.6-4.43 4.57-9.28 5.74-14.44z"/><path id="path10" fill="#ffe600" d="M110.78 32.96c0-.01 0-.01 0 0l4.02-9a2.77 2.77 0 0 1 3.7-1.42c1.37.61 2 2.24 1.36 3.68l-10.4 23.3v.01l-4.01 8.99c-.61 1.37-2.24 2-3.61 1.38-1.44-.64-2.06-2.27-1.45-3.64zm-21.34 7.08.93-4.13c.38-1.52 1.84-2.4 3.35-2.12 1.47.33 2.4 1.84 2.07 3.31l-2.8 12.5c-.01.03-.02.05-.03.08l-.91 4.05c-.33 1.47-1.84 2.4-3.31 2.07-1.47-.33-2.44-1.79-2.12-3.35zM76.7 13.61c1.5 0 2.77 1.24 2.72 2.78l.06 25.5c0 .1-.02.19-.02.29l.02 9.33c.03 1.56-1.24 2.77-2.8 2.81-1.5 0-2.77-1.24-2.72-2.78l-.06-25.5c0-.1.02-.19.02-.29l-.02-9.33c-.04-1.56 1.24-2.78 2.8-2.81zm-18.9 19.7c1.46-.35 2.96.59 3.32 2.05l3.03 12.45c.01.05.01.1.02.15l.97 3.99c.35 1.46-.59 2.96-2.05 3.32-1.46.35-2.98-.52-3.38-2.07l-2.99-12.37c-.01-.02 0-.05-.01-.07l-.98-4.07c-.33-1.52.59-2.96 2.07-3.38Zm-17.71-.94-3.58-8.94c-.61-1.44.13-3.04 1.57-3.64 1.4-.55 3.04.13 3.55 1.58l9.47 23.68c.01.02.01.05.02.07l3.58 8.94c.61 1.44-.13 3.04-1.57 3.64-1.4.55-3.04-.13-3.55-1.58l-9.47-23.68c-.01-.02-.01-.04-.02-.07ZM28.44 44.25c1.28-.78 3-.34 3.78.94l6.67 10.94c.01.02.02.05.03.07l2.11 3.46c.78 1.28.34 3-.94 3.78-1.28.78-3 .41-3.85-.94l-2.14-3.53-.98-1.62-3.48-5.73-2.14-3.52c-.78-1.35-.34-3 .94-3.85zm86.34 14.08c0-.01.01-.01.01-.02l7.67-10.15c.97-1.23 2.67-1.42 3.93-.55 1.2.9 1.42 2.67.52 3.87l-7.71 10.24c-.01.02-.03.03-.04.04l-2.56 3.41c-.9 1.2-2.67 1.42-3.87.52-1.2-.9-1.49-2.64-.55-3.93zm17.43 21.6 3.16-2.39c.08-.08.16-.17.26-.25l10.15-7.67c1.27-.92 2.95-.64 3.93.55.91 1.2.64 2.95-.55 3.86l-3.18 2.41c-.08.07-.15.15-.24.22l-10.21 7.75c-1.2.91-2.95.64-3.86-.56-.91-1.19-.71-2.94.54-3.92zm9.16-27.64s.01-.01.02-.01l7.06-6.8c1.13-1.09 2.87-1.06 3.97.07 1.04 1.08 1.01 2.83-.12 3.92l-18.38 17.7s-.01.01-.02.01l-7.06 6.8a2.753 2.753 0 0 1-3.87-.07c-1.09-1.13-1.06-2.87.03-3.92zm31.95 28.34-8.51 4.05c-.09.06-.18.12-.28.17l-23.05 10.96c-1.36.65-3 .06-3.65-1.3-.68-1.42-.09-3.06 1.27-3.71l8.52-4.05c.09-.06.17-.12.27-.16l23.05-10.96c1.42-.68 3.06-.09 3.74 1.33.64 1.35.06 2.99-1.36 3.67zm-16.78 41.13-9.48.02c-1.51 0-2.74-1.22-2.74-2.73 0-1.57 1.22-2.81 2.73-2.81l25.52-.06c.08 0 .16.02.24.02l9.47-.02c1.57 0 2.81 1.22 2.81 2.8 0 1.51-1.22 2.74-2.8 2.74l-25.52.06c-.08 0-.15-.02-.23-.02zm-4.86 30.73-8.82-3.53a2.742 2.742 0 0 1-1.52-3.56c.59-1.46 2.19-2.15 3.58-1.59l23.69 9.49c.06.02.1.06.16.08l8.81 3.53c1.46.59 2.15 2.19 1.56 3.65-.56 1.4-2.16 2.08-3.62 1.5l-23.69-9.49c-.05-.02-.1-.06-.15-.08zm-9.87-47.42c-.36-1.46.51-2.99 2.06-3.39l12.36-3.03c.02 0 .04 0 .05-.01l4.2-1.03c1.52-.34 2.97.58 3.39 2.06.36 1.46-.58 2.97-2.04 3.33l-12.44 3.07c-.05.01-.09.01-.14.02l-4.11 1.02c-1.46.35-2.97-.58-3.33-2.04zm5.61 23.73 4.13.64h.05l12.57 1.94c1.54.27 2.52 1.67 2.34 3.2-.23 1.48-1.67 2.52-3.16 2.29l-12.67-1.93c-.01 0-.02 0-.02-.01l-4.16-.63c-1.48-.23-2.52-1.67-2.29-3.16a2.837 2.837 0 0 1 3.21-2.34zm-7.7 28.66 3.48 2.47c.02.01.04.02.07.04l10.37 7.37c1.25.93 1.5 2.62.66 3.91-.87 1.23-2.62 1.5-3.85.63l-3.54-2.51-10.46-7.4c-1.22-.87-1.5-2.62-.63-3.85.86-1.23 2.59-1.57 3.9-.66z"/><path id="path12" d="M211.14 68.92h17.9v60.33h25.82v13.13h-43.73V68.92Zm92.55 47.31c0 4.34.29 7.96.87 10.85.58 2.89 1.26 5.21 2.06 6.94.87 2.1 1.88 3.73 3.04 4.88l-13.78 4.34c-.8-.72-1.52-1.63-2.17-2.71-.58-.94-1.14-2.08-1.68-3.42-.54-1.34-.99-2.91-1.36-4.72-1.23 3.4-3.04 6.02-5.42 7.87-2.39 1.84-5.53 2.77-9.44 2.77-3.55 0-6.64-.65-9.28-1.95-2.64-1.3-4.83-3.13-6.56-5.48-1.74-2.35-3.02-5.19-3.85-8.52-.83-3.33-1.25-7.01-1.25-11.07 0-4.12.67-7.96 2.01-11.5 1.34-3.54 3.2-6.6 5.59-9.17 2.39-2.57 5.24-4.57 8.57-6.02 3.33-1.45 7.01-2.17 11.07-2.17 2.24 0 4.63.16 7.16.49 2.53.33 4.84.69 6.94 1.09 2.1.4 3.85.76 5.26 1.08 1.41.33 2.15.49 2.22.49zm-21.97 12.8c.98-.94 1.83-2.21 2.55-3.8.72-1.59 1.28-3.42 1.68-5.48.4-2.06.6-4.25.6-6.56V100.6c-.51-.22-1.21-.41-2.12-.6-.91-.18-1.68-.27-2.33-.27-1.74 0-3.18.38-4.34 1.14-1.16.76-2.08 1.81-2.77 3.15-.69 1.34-1.18 2.95-1.46 4.83-.29 1.88-.43 3.91-.43 6.08 0 2.03.04 3.96.11 5.8.07 1.84.31 3.49.71 4.94.4 1.45.96 2.6 1.68 3.47.72.87 1.74 1.3 3.04 1.3 1.07 0 2.1-.47 3.08-1.41zm30.32-40.69h8.9l1.84-11.17 14.87-3.26v14.43h12.8l-2.06 12.59h-10.74v24.2c0 3.18 1.66 4.77 4.99 4.77 1.81 0 3.54-.18 5.21-.54.87-.22 1.74-.43 2.6-.65l2.93 11.5c-1.45.51-3.46 1.07-6.02 1.68-2.57.61-5.7.92-9.39.92-5.42 0-9.68-1.12-12.75-3.36-3.08-2.24-4.61-6.04-4.61-11.39v-27.13h-8.57zm44.87 15.47c1.41-3.72 3.36-6.83 5.86-9.33 2.49-2.5 5.41-4.39 8.73-5.7 3.33-1.3 6.94-1.95 10.85-1.95 3.4 0 6.29.42 8.68 1.25 2.39.83 4.34 1.99 5.86 3.47 1.52 1.48 2.64 3.22 3.36 5.21.72 1.99 1.09 4.14 1.09 6.46 0 2.61-.65 5.06-1.95 7.38-1.3 2.31-3.16 4.36-5.59 6.13-2.42 1.77-5.35 3.24-8.79 4.39-3.44 1.16-7.32 1.92-11.66 2.28.51 2.17 1.43 3.93 2.77 5.26 1.34 1.34 3.38 2.01 6.13 2.01 1.59 0 3.29-.18 5.1-.54 1.81-.36 3.47-.76 4.99-1.19 1.81-.5 3.58-1.08 5.32-1.74l3.25 11.28c-1.95.94-4.09 1.77-6.4 2.5-1.95.58-4.21 1.12-6.78 1.63-2.57.5-5.3.76-8.19.76-4.41 0-8.19-.65-11.34-1.95-3.15-1.3-5.71-3.11-7.7-5.42-1.99-2.31-3.44-5.12-4.34-8.41-.91-3.29-1.36-6.93-1.36-10.9-.01-4.87.7-9.16 2.11-12.88zm19.74-3.53c-.98.8-1.75 1.84-2.33 3.15-.58 1.3-1.01 2.75-1.3 4.34-.29 1.59-.47 3.15-.54 4.67 2.17-.07 4-.4 5.48-.98 1.48-.58 2.69-1.3 3.63-2.17.94-.87 1.63-1.81 2.06-2.82.44-1.01.65-1.95.65-2.82 0-1.37-.38-2.48-1.14-3.31-.76-.83-1.75-1.25-2.98-1.25-1.37 0-2.55.39-3.53 1.19zm57.89 3.9c-.94.43-1.85 1.1-2.71 2.01-.87.91-1.59 2.06-2.17 3.47-.58 1.41-.87 3.09-.87 5.05v27.67h-17.14v-28.21c0-4.34-.31-7.94-.92-10.8-.62-2.86-1.32-5.19-2.12-7-.87-2.02-1.84-3.65-2.93-4.88l13.78-4.34c.58.72 1.19 1.56 1.85 2.5.5.8 1.05 1.81 1.63 3.04.58 1.23 1.05 2.64 1.41 4.23 1.81-3.47 3.96-5.97 6.46-7.49 2.5-1.52 5.44-2.28 8.84-2.28 1.52 0 2.88.13 4.07.38 1.19.25 2.19.53 2.98.81l-4.45 16.38c-.51-.29-1.18-.56-2.01-.81-.83-.25-1.86-.38-3.09-.38-.8 0-1.67.22-2.61.65zm50.02 38.2v-33.85c0-2.53-.31-4.57-.92-6.13-.62-1.55-1.76-2.33-3.42-2.33-2.03 0-3.91 1.32-5.64 3.96-1.74 2.64-2.6 6.35-2.6 11.12v27.23h-17.14v-28.21c0-4.34-.31-7.94-.92-10.8-.62-2.86-1.32-5.19-2.12-7-.87-2.02-1.84-3.65-2.93-4.88l13.78-4.34c.65.72 1.3 1.56 1.95 2.5.58.8 1.14 1.83 1.68 3.09.54 1.27.99 2.7 1.36 4.29 1.88-3.4 4.47-5.9 7.76-7.49 3.29-1.59 6.89-2.39 10.8-2.39 5.64 0 9.66 1.72 12.04 5.15 2.39 3.44 3.58 8.01 3.58 13.72v36.35h-17.26zm44.26-77.91c1.59 1.81 2.39 4.09 2.39 6.84 0 2.82-.81 5.17-2.44 7.05s-4.07 2.82-7.32 2.82c-3.04 0-5.37-.92-7-2.77-1.63-1.84-2.44-4.03-2.44-6.56 0-2.89.83-5.3 2.5-7.21 1.66-1.92 4.12-2.88 7.38-2.88 3.03 0 5.34.91 6.93 2.71zm-11.93 75.14c-2.53-2.13-3.8-5.15-3.8-9.06V87.91h17.14v37.76c0 1.66.25 2.79.76 3.36.51.58 1.26.87 2.28.87.58 0 1.16-.05 1.74-.16.58-.11.94-.2 1.09-.27l1.52 10.74c-.07.07-.4.24-.98.49-.58.26-1.34.54-2.28.87-.94.33-2.06.61-3.36.87-1.3.25-2.68.38-4.12.38-4.13-.01-7.46-1.08-9.99-3.21zm73.23-23.38c0 4.34.29 7.96.87 10.85.58 2.89 1.26 5.21 2.06 6.94.87 2.1 1.88 3.73 3.04 4.88l-13.78 4.34c-.8-.72-1.52-1.63-2.17-2.71-.58-.94-1.14-2.08-1.68-3.42-.54-1.34-.99-2.91-1.36-4.72-1.23 3.4-3.04 6.02-5.42 7.87-2.39 1.84-5.53 2.77-9.44 2.77-3.55 0-6.64-.65-9.28-1.95-2.64-1.3-4.83-3.13-6.56-5.48-1.74-2.35-3.02-5.19-3.85-8.52-.83-3.33-1.25-7.01-1.25-11.07 0-4.12.67-7.96 2.01-11.5 1.34-3.54 3.2-6.6 5.59-9.17 2.39-2.57 5.24-4.57 8.57-6.02 3.33-1.45 7.01-2.17 11.07-2.17 2.24 0 4.63.16 7.16.49 2.53.33 4.84.69 6.94 1.09 2.1.4 3.85.76 5.26 1.08 1.41.33 2.15.49 2.22.49zm-21.97 12.8c.98-.94 1.83-2.21 2.55-3.8.72-1.59 1.28-3.42 1.68-5.48.4-2.06.6-4.25.6-6.56V100.6c-.51-.22-1.21-.41-2.12-.6-.91-.18-1.68-.27-2.33-.27-1.74 0-3.18.38-4.34 1.14-1.16.76-2.08 1.81-2.77 3.15-.69 1.34-1.18 2.95-1.46 4.83-.29 1.88-.43 3.91-.43 6.08 0 2.03.04 3.96.11 5.8.07 1.84.31 3.49.71 4.94.4 1.45.96 2.6 1.68 3.47.72.87 1.74 1.3 3.04 1.3 1.08 0 2.11-.47 3.08-1.41z" class="st1"/><path id="path14" d="M208.04 159.68h13.46v3.02h-9.48v6.33h7.8l-.5 3.05h-7.3v7.27H222v3.01h-13.97v-22.68zm14.67 22.68 5.59-8.84-4.89-7.84h4.42l2.11 3.45c.13.22.31.57.54 1.04.22.47.45.94.67 1.41.27-.4.53-.8.79-1.21.26-.4.49-.79.69-1.17.54-.98.92-1.82 1.16-2.51.23-.69.35-1.03.35-1h3.95c0-.02-.13.35-.4 1.11-.27.76-.74 1.76-1.41 3.02-.38.67-.81 1.33-1.31 1.99-.49.66-.97 1.24-1.44 1.76l5.43 8.81h-4.35l-2.48-4.32-1.31-2.45-1.31 2.48-2.51 4.29h-4.29zm18.72 7.4v-15.84c0-1.34-.09-2.46-.27-3.37-.18-.9-.37-1.64-.57-2.19-.25-.65-.51-1.17-.8-1.57l3.01-1.21c.27.27.51.6.74 1.01.18.33.36.74.54 1.22.18.48.31 1.04.4 1.69.38-1.34.98-2.36 1.81-3.05.82-.69 1.98-1.04 3.45-1.04 1.05 0 1.96.2 2.73.59.77.39 1.41.95 1.91 1.67.5.73.88 1.6 1.12 2.63.25 1.03.37 2.17.37 3.42 0 1.27-.19 2.45-.57 3.53-.38 1.08-.92 2.02-1.62 2.8-.7.78-1.55 1.4-2.53 1.84-.98.45-2.08.67-3.28.67-.42 0-.85-.02-1.29-.07-.44-.05-.88-.09-1.32-.13v6.73zm6.13-21.1c-.47.38-.88.88-1.22 1.51-.35.62-.61 1.33-.8 2.11-.19.78-.28 1.59-.28 2.41v4.82c.22.07.56.14 1 .23.45.09.84.13 1.17.13.85 0 1.55-.14 2.11-.44.56-.29 1-.69 1.34-1.21.33-.51.57-1.13.7-1.84.13-.71.2-1.49.2-2.34 0-.78-.02-1.53-.07-2.24-.05-.71-.16-1.35-.35-1.91-.19-.56-.46-1-.82-1.32-.36-.32-.84-.49-1.44-.49-.55.01-1.07.2-1.54.58zm11.31 1.81c.41-1.14.98-2.09 1.71-2.86s1.58-1.35 2.56-1.74c.98-.39 2.04-.59 3.18-.59 1 0 1.86.12 2.56.37s1.28.58 1.72 1c.45.42.78.93.99 1.51.21.58.32 1.2.32 1.87 0 .8-.22 1.57-.67 2.29-.45.73-1.09 1.36-1.93 1.91-.84.55-1.85.98-3.03 1.31-1.18.32-2.51.5-3.98.52.07.51.17 1 .32 1.46.14.46.36.86.64 1.21s.64.62 1.09.82c.45.2 1.01.3 1.67.3.49 0 1.02-.06 1.57-.17.56-.11 1.07-.25 1.54-.4.56-.18 1.11-.38 1.64-.6l1 2.38c-.58.29-1.21.55-1.88.77-.58.2-1.25.38-2.01.54-.76.16-1.56.23-2.41.23-1.3 0-2.4-.19-3.32-.59-.92-.39-1.66-.94-2.24-1.66-.58-.71-1-1.57-1.27-2.58s-.4-2.12-.4-3.35c.01-1.5.21-2.81.63-3.95zm5.32-2.06c-.48.35-.87.79-1.16 1.34-.29.55-.5 1.16-.62 1.84-.12.68-.2 1.37-.22 2.06 1.07-.04 1.98-.18 2.73-.42.75-.23 1.36-.52 1.82-.87.47-.35.81-.72 1.02-1.12.21-.4.32-.8.32-1.21 0-.65-.19-1.17-.57-1.56-.38-.39-.88-.59-1.51-.59-.72.01-1.33.18-1.81.53zm17.17 1.05c-.4.2-.76.48-1.07.82a4.315 4.315 0 0 0-1.07 2.9v9.18h-3.82v-8.44c0-1.34-.09-2.46-.27-3.37-.18-.9-.37-1.64-.57-2.19-.25-.65-.51-1.17-.8-1.57l3.01-1.21c.2.25.41.55.64.91.18.31.36.68.54 1.11.18.42.32.93.43 1.51.45-1.29 1.09-2.23 1.94-2.8.85-.57 1.81-.85 2.88-.85.51 0 .99.06 1.44.18.45.12.66.18.64.18l-1.07 3.72c.02 0-.11-.06-.38-.18-.28-.12-.7-.18-1.26-.18-.41-.02-.81.08-1.21.28zm9.57-10.58c.38.42.57.97.57 1.64 0 .67-.2 1.23-.59 1.67-.39.45-.97.67-1.72.67-.72 0-1.27-.22-1.66-.65-.39-.44-.59-.97-.59-1.59 0-.69.19-1.26.59-1.71.39-.45.98-.67 1.76-.67.72 0 1.27.22 1.64.64zm-2.67 22.56c-.63-.7-.94-1.61-.94-2.73v-13.03h3.82v12.69c0 .51.08.86.23 1.04.16.18.39.27.7.27h.29c.1 0 .19-.01.28-.03.09 0 .19-.01.3-.03l.4 2.41c-.16.09-.36.17-.6.23-.2.07-.45.12-.75.17-.3.05-.64.07-1.02.07-1.19-.01-2.09-.36-2.71-1.06zm7.38-10.97c.41-1.14.98-2.09 1.71-2.86s1.58-1.35 2.56-1.74c.98-.39 2.04-.59 3.18-.59 1 0 1.86.12 2.56.37s1.28.58 1.73 1c.45.42.78.93.99 1.51.21.58.32 1.2.32 1.87 0 .8-.22 1.57-.67 2.29-.45.73-1.09 1.36-1.93 1.91-.84.55-1.85.98-3.03 1.31-1.18.32-2.51.5-3.98.52.07.51.17 1 .32 1.46.14.46.36.86.64 1.21s.64.62 1.09.82c.45.2 1.01.3 1.67.3.49 0 1.02-.06 1.57-.17.56-.11 1.07-.25 1.54-.4.56-.18 1.11-.38 1.64-.6l1 2.38c-.58.29-1.21.55-1.88.77-.58.2-1.25.38-2.01.54-.76.16-1.56.23-2.41.23-1.3 0-2.4-.19-3.32-.59-.92-.39-1.66-.94-2.24-1.66-.58-.71-1-1.57-1.27-2.58s-.4-2.12-.4-3.35c0-1.5.21-2.81.62-3.95zm5.33-2.06c-.48.35-.87.79-1.16 1.34-.29.55-.5 1.16-.62 1.84-.12.68-.2 1.37-.22 2.06 1.07-.04 1.98-.18 2.73-.42.75-.23 1.36-.52 1.82-.87.47-.35.81-.72 1.02-1.12.21-.4.32-.8.32-1.21 0-.65-.19-1.17-.57-1.56-.38-.39-.88-.59-1.51-.59-.73.01-1.34.18-1.81.53zm21.28 13.95v-10.82c0-.94-.17-1.69-.5-2.26-.34-.57-.91-.85-1.71-.85-.51 0-1.01.13-1.49.38-.48.26-.91.63-1.29 1.12-.38.49-.69 1.09-.92 1.79-.24.7-.35 1.49-.35 2.36v8.27h-3.82v-8.44c0-1.34-.09-2.46-.27-3.37-.18-.9-.37-1.64-.57-2.19-.25-.65-.51-1.17-.8-1.57l3.01-1.21c.22.25.45.55.67.91.18.31.36.7.54 1.16.18.46.32.98.44 1.56.58-1.34 1.42-2.3 2.51-2.9a7.15 7.15 0 0 1 3.45-.89c1.72 0 2.96.52 3.73 1.56s1.16 2.44 1.16 4.2v11.19zm17.05-12.76c-.34-.38-.68-.7-1.02-.97-.35-.27-.81-.4-1.39-.4-.34 0-.71.05-1.12.15-.41.1-.8.35-1.16.74-.36.39-.65.97-.89 1.73-.23.76-.35 1.79-.35 3.08 0 1.32.12 2.36.35 3.13.24.77.54 1.37.91 1.79.37.43.76.7 1.19.82.42.12.84.18 1.24.18.31 0 .64-.03.97-.08.34-.06.66-.12.97-.2.31-.08.59-.15.82-.22.23-.07.41-.12.52-.17l.94 2.41c-.07.02-.22.09-.45.2-.24.11-.55.22-.95.34-.4.11-.88.22-1.44.32-.56.1-1.18.15-1.88.15-1.29 0-2.4-.19-3.32-.59-.92-.39-1.67-.94-2.26-1.66-.59-.71-1.03-1.57-1.31-2.58s-.42-2.12-.42-3.35c0-1.47.2-2.78.59-3.92.39-1.14.93-2.09 1.62-2.86a6.88 6.88 0 0 1 2.45-1.76c.94-.4 1.94-.6 3.01-.6 1.05 0 1.94.2 2.66.6.73.4 1.35.96 1.86 1.67zm8.17-10.72c.38.42.57.97.57 1.64 0 .67-.2 1.23-.59 1.67-.39.45-.97.67-1.72.67-.72 0-1.27-.22-1.66-.65-.39-.44-.59-.97-.59-1.59 0-.69.19-1.26.59-1.71.39-.45.98-.67 1.76-.67.71 0 1.26.22 1.64.64zm-2.68 22.56c-.63-.7-.94-1.61-.94-2.73v-13.03h3.82v12.69c0 .51.08.86.23 1.04.16.18.39.27.7.27h.29c.11 0 .19-.01.28-.03.09 0 .19-.01.3-.03l.4 2.41c-.16.09-.36.17-.6.23-.2.07-.45.12-.75.17-.3.05-.64.07-1.02.07-1.18-.01-2.09-.36-2.71-1.06zm21.23-7.15c0 1.34.08 2.46.25 3.37.17.91.35 1.64.55 2.19.25.67.51 1.19.8 1.57l-2.98 1.21c-.29-.29-.56-.64-.8-1.04-.2-.36-.39-.79-.57-1.29-.18-.5-.29-1.1-.34-1.79-.38 1.34-.99 2.35-1.83 3.03-.84.68-1.97 1.02-3.4 1.02-1.05 0-1.96-.2-2.73-.59-.77-.39-1.41-.95-1.93-1.67-.51-.73-.89-1.6-1.14-2.63-.25-1.03-.37-2.17-.37-3.42 0-1.27.2-2.45.59-3.53a8.55 8.55 0 0 1 1.64-2.8c.7-.78 1.55-1.4 2.53-1.84.98-.45 2.06-.67 3.25-.67.67 0 1.37.05 2.09.15.73.1 1.4.21 2.03.32.62.11 1.16.22 1.59.32.44.1.69.16.75.18v7.91zm-6.12 5.02c.47-.38.88-.88 1.22-1.49.35-.61.61-1.32.8-2.11.19-.79.28-1.6.28-2.43v-4.82c-.22-.07-.56-.14-1-.23-.45-.09-.85-.13-1.21-.13-.85 0-1.55.15-2.09.44-.55.29-.99.69-1.32 1.21-.33.51-.57 1.13-.7 1.84-.13.71-.2 1.5-.2 2.34 0 .78.02 1.53.07 2.24.04.72.16 1.35.35 1.91.19.56.46 1 .82 1.32.36.32.84.49 1.44.49.55-.01 1.07-.2 1.54-.58zm15.53-14.03c.65 0 1.28.07 1.91.2.62.13 1.18.29 1.67.47.58.2 1.12.41 1.61.64l-1.14 2.61c-.45-.2-.89-.38-1.34-.54-.38-.13-.8-.26-1.26-.38-.46-.12-.91-.18-1.36-.18-.51 0-.95.12-1.32.37-.37.25-.55.61-.55 1.11 0 1.27.93 2.27 2.78 2.98.69.27 1.32.55 1.88.85.56.3 1.03.65 1.42 1.05.39.4.69.87.89 1.39.2.52.3 1.14.3 1.86 0 .63-.13 1.24-.38 1.84-.26.6-.64 1.14-1.14 1.61-.5.47-1.12.84-1.84 1.12-.73.28-1.55.42-2.46.42-.74 0-1.46-.08-2.18-.25-.71-.17-1.36-.35-1.92-.55-.57-.2-1.02-.39-1.36-.57l-.5-.23 1.24-2.81.43.24c.29.18.66.37 1.11.57.45.2.93.39 1.44.55.51.17.98.25 1.41.25.78 0 1.36-.16 1.74-.47.38-.31.57-.73.57-1.24 0-.58-.21-1.11-.62-1.59-.41-.48-1.03-.88-1.86-1.19-1.72-.65-2.95-1.38-3.7-2.21-.75-.83-1.12-1.9-1.12-3.21 0-.62.15-1.22.44-1.79.29-.57.69-1.07 1.19-1.51.5-.44 1.1-.78 1.79-1.02.68-.27 1.43-.39 2.23-.39zm29.51 17.35c-.05-.02-.15-.13-.3-.32-.16-.19-.33-.45-.52-.79-.19-.33-.37-.75-.55-1.26-.18-.5-.29-1.09-.34-1.76-.38 1.34-.99 2.35-1.83 3.03-.84.68-1.97 1.02-3.4 1.02-1.05 0-1.96-.2-2.73-.59-.77-.39-1.41-.95-1.93-1.67-.51-.73-.89-1.6-1.14-2.63-.25-1.03-.37-2.17-.37-3.42 0-1.27.2-2.45.59-3.53a8.55 8.55 0 0 1 1.64-2.8c.7-.78 1.55-1.4 2.53-1.84.98-.45 2.06-.67 3.25-.67.4 0 .83.02 1.29.07.46.05.91.1 1.36.17v-7.57l3.82.67v15.54c0 1.34.08 2.45.23 3.33.16.88.34 1.6.54 2.14.2.55.38.94.55 1.19.17.25.26.4.29.47zm-4.76-3.35c.47-.38.88-.88 1.22-1.49.35-.61.61-1.31.8-2.09.19-.78.28-1.59.28-2.41v-4.82c-.22-.07-.56-.14-1-.23-.45-.09-.85-.13-1.21-.13-.85 0-1.55.15-2.09.44-.55.29-.99.69-1.32 1.21-.33.51-.57 1.13-.7 1.84-.13.71-.2 1.5-.2 2.34 0 .78.02 1.53.07 2.24.04.72.16 1.35.35 1.89.19.55.46.98.82 1.31.36.32.84.49 1.44.49.56-.02 1.08-.21 1.54-.59zm10.24-8.81c.41-1.14.98-2.09 1.71-2.86s1.58-1.35 2.56-1.74c.98-.39 2.04-.59 3.18-.59 1 0 1.86.12 2.56.37s1.28.58 1.72 1c.45.42.78.93.99 1.51.21.58.32 1.2.32 1.87 0 .8-.22 1.57-.67 2.29-.45.73-1.09 1.36-1.93 1.91-.84.55-1.85.98-3.03 1.31-1.18.32-2.51.5-3.98.52.07.51.17 1 .32 1.46.14.46.36.86.64 1.21s.64.62 1.09.82c.45.2 1.01.3 1.67.3.49 0 1.02-.06 1.57-.17.56-.11 1.07-.25 1.54-.4.56-.18 1.11-.38 1.64-.6l1 2.38c-.58.29-1.21.55-1.88.77-.58.2-1.25.38-2.01.54-.76.16-1.56.23-2.41.23-1.3 0-2.4-.19-3.32-.59-.92-.39-1.66-.94-2.24-1.66-.58-.71-1-1.57-1.27-2.58s-.4-2.12-.4-3.35c.01-1.5.21-2.81.63-3.95zm5.32-2.06c-.48.35-.87.79-1.16 1.34-.29.55-.5 1.16-.62 1.84-.12.68-.2 1.37-.22 2.06 1.07-.04 1.98-.18 2.73-.42.75-.23 1.36-.52 1.82-.87.47-.35.81-.72 1.02-1.12.21-.4.32-.8.32-1.21 0-.65-.19-1.17-.57-1.56-.38-.39-.88-.59-1.51-.59-.72.01-1.33.18-1.81.53zm32.91 5.88c0 1.34.08 2.46.25 3.37.17.91.35 1.64.55 2.19.25.67.51 1.19.8 1.57l-2.98 1.21c-.29-.29-.56-.64-.8-1.04-.2-.36-.39-.79-.57-1.29-.18-.5-.29-1.1-.34-1.79-.38 1.34-.99 2.35-1.83 3.03-.84.68-1.97 1.02-3.4 1.02-1.05 0-1.96-.2-2.73-.59-.77-.39-1.41-.95-1.93-1.67-.51-.73-.89-1.6-1.14-2.63-.25-1.03-.37-2.17-.37-3.42 0-1.27.2-2.45.59-3.53a8.55 8.55 0 0 1 1.64-2.8c.7-.78 1.55-1.4 2.53-1.84.98-.45 2.06-.67 3.25-.67.67 0 1.37.05 2.09.15.73.1 1.4.21 2.03.32.62.11 1.16.22 1.59.32.43.1.69.16.75.18v7.91zm-6.13 5.02c.47-.38.88-.88 1.22-1.49.35-.61.61-1.32.8-2.11.19-.79.28-1.6.28-2.43v-4.82c-.22-.07-.56-.14-1-.23-.45-.09-.85-.13-1.21-.13-.85 0-1.55.15-2.09.44-.55.29-.99.69-1.32 1.21-.33.51-.57 1.13-.7 1.84-.13.71-.2 1.5-.2 2.34 0 .78.02 1.53.07 2.24.04.72.16 1.35.35 1.91.19.56.46 1 .82 1.32.36.32.84.49 1.44.49.56-.01 1.07-.2 1.54-.58zm10.25 10.45v-15.84c0-1.34-.09-2.46-.27-3.37-.18-.9-.37-1.64-.57-2.19-.25-.65-.51-1.17-.8-1.57l3.01-1.21c.27.27.51.6.74 1.01.18.33.36.74.54 1.22.18.48.31 1.04.4 1.69.38-1.34.98-2.36 1.81-3.05.82-.69 1.98-1.04 3.45-1.04 1.05 0 1.96.2 2.73.59.77.39 1.41.95 1.91 1.67.5.73.88 1.6 1.12 2.63.25 1.03.37 2.17.37 3.42 0 1.27-.19 2.45-.57 3.53-.38 1.08-.92 2.02-1.62 2.8-.7.78-1.55 1.4-2.53 1.84-.98.45-2.08.67-3.28.67-.43 0-.85-.02-1.29-.07-.43-.05-.88-.09-1.32-.13v6.73zm6.13-21.1c-.47.38-.88.88-1.22 1.51-.35.62-.61 1.33-.8 2.11-.19.78-.28 1.59-.28 2.41v4.82c.22.07.56.14 1 .23.45.09.84.13 1.17.13.85 0 1.55-.14 2.11-.44.56-.29 1-.69 1.34-1.21.33-.51.57-1.13.7-1.84.13-.71.2-1.49.2-2.34 0-.78-.02-1.53-.07-2.24-.05-.71-.16-1.35-.35-1.91-.19-.56-.46-1-.82-1.32-.36-.32-.84-.49-1.44-.49-.56.01-1.07.2-1.54.58zm17.95.8c-.4.2-.76.48-1.07.82a4.315 4.315 0 0 0-1.07 2.9v9.18h-3.82v-8.44c0-1.34-.09-2.46-.27-3.37-.18-.9-.37-1.64-.57-2.19-.25-.65-.51-1.17-.8-1.57l3.01-1.21c.2.25.41.55.64.91.18.31.36.68.54 1.11.18.42.32.93.44 1.51.45-1.29 1.09-2.23 1.94-2.8.85-.57 1.81-.85 2.88-.85.51 0 .99.06 1.44.18.45.12.66.18.64.18l-1.07 3.72c.02 0-.11-.06-.38-.18-.28-.12-.7-.18-1.26-.18-.42-.02-.82.08-1.22.28zm4.7 1.01c.41-1.14.98-2.09 1.71-2.86s1.58-1.35 2.56-1.74c.98-.39 2.04-.59 3.18-.59 1 0 1.86.12 2.56.37s1.28.58 1.73 1c.45.42.78.93.99 1.51.21.58.32 1.2.32 1.87 0 .8-.22 1.57-.67 2.29-.45.73-1.09 1.36-1.93 1.91-.84.55-1.85.98-3.03 1.31-1.18.32-2.51.5-3.98.52.07.51.17 1 .32 1.46.14.46.36.86.64 1.21s.64.62 1.09.82c.45.2 1.01.3 1.67.3.49 0 1.02-.06 1.57-.17.56-.11 1.07-.25 1.54-.4.56-.18 1.11-.38 1.64-.6l1 2.38c-.58.29-1.21.55-1.88.77-.58.2-1.25.38-2.01.54-.76.16-1.56.23-2.41.23-1.3 0-2.4-.19-3.32-.59-.92-.39-1.66-.94-2.24-1.66-.58-.71-1-1.57-1.27-2.58s-.4-2.12-.4-3.35c0-1.5.21-2.81.62-3.95zm5.33-2.06c-.48.35-.87.79-1.16 1.34-.29.55-.5 1.16-.62 1.84-.12.68-.2 1.37-.22 2.06 1.07-.04 1.98-.18 2.73-.42.75-.23 1.36-.52 1.82-.87.47-.35.81-.72 1.02-1.12.21-.4.32-.8.32-1.21 0-.65-.19-1.17-.57-1.56-.38-.39-.88-.59-1.51-.59-.72.01-1.33.18-1.81.53zm21.28 13.95v-10.82c0-.94-.17-1.69-.5-2.26-.34-.57-.91-.85-1.71-.85-.51 0-1.01.13-1.49.38-.48.26-.91.63-1.29 1.12-.38.49-.69 1.09-.92 1.79-.24.7-.35 1.49-.35 2.36v8.27h-3.82v-8.44c0-1.34-.09-2.46-.27-3.37-.18-.9-.37-1.64-.57-2.19-.25-.65-.51-1.17-.8-1.57l3.01-1.21c.22.25.45.55.67.91.18.31.36.7.54 1.16.18.46.32.98.44 1.56.58-1.34 1.42-2.3 2.51-2.9a7.15 7.15 0 0 1 3.45-.89c1.72 0 2.96.52 3.73 1.56s1.16 2.44 1.16 4.2v11.19zm20.1.27c-.05-.02-.15-.13-.3-.32-.16-.19-.33-.45-.52-.79-.19-.33-.37-.75-.55-1.26-.18-.5-.29-1.09-.34-1.76-.38 1.34-.99 2.35-1.83 3.03-.84.68-1.97 1.02-3.4 1.02-1.05 0-1.96-.2-2.73-.59-.77-.39-1.41-.95-1.93-1.67-.51-.73-.89-1.6-1.14-2.63-.25-1.03-.37-2.17-.37-3.42 0-1.27.2-2.45.59-3.53a8.55 8.55 0 0 1 1.64-2.8c.7-.78 1.55-1.4 2.53-1.84.98-.45 2.06-.67 3.25-.67.4 0 .83.02 1.29.07.46.05.91.1 1.36.17v-7.57l3.82.67v15.54c0 1.34.08 2.45.23 3.33.16.88.34 1.6.54 2.14.2.55.38.94.55 1.19.17.25.26.4.29.47zm-4.76-3.35c.47-.38.88-.88 1.22-1.49.35-.61.61-1.31.8-2.09.19-.78.28-1.59.28-2.41v-4.82c-.22-.07-.56-.14-1-.23-.45-.09-.85-.13-1.21-.13-.85 0-1.55.15-2.09.44-.55.29-.99.69-1.32 1.21-.33.51-.57 1.13-.7 1.84-.13.71-.2 1.5-.2 2.34 0 .78.02 1.53.07 2.24.04.72.16 1.35.35 1.89.19.55.46.98.82 1.31.36.32.84.49 1.44.49a2.53 2.53 0 0 0 1.54-.59zm14.1-20.4c.38.42.57.97.57 1.64 0 .67-.2 1.23-.59 1.67-.39.45-.97.67-1.72.67-.72 0-1.27-.22-1.66-.65-.39-.44-.59-.97-.59-1.59 0-.69.19-1.26.59-1.71.39-.45.98-.67 1.76-.67.71 0 1.26.22 1.64.64zm-2.68 22.56c-.63-.7-.94-1.61-.94-2.73v-13.03h3.82v12.69c0 .51.08.86.23 1.04.16.18.39.27.7.27h.29c.1 0 .19-.01.28-.03.09 0 .19-.01.3-.03l.4 2.41c-.16.09-.36.17-.6.23-.2.07-.45.12-.75.17-.3.05-.64.07-1.02.07-1.18-.01-2.08-.36-2.71-1.06zm6.6.92v-2.28l7.4-11.72c-1.14.07-2.27.1-3.38.1h-3.28l-.47-2.78h11.59v2.28l-7.3 11.72c1-.07 2.01-.1 3.01-.1h4.59v2.78zm28.3-8.07c0 1.34.08 2.46.25 3.37.17.91.35 1.64.55 2.19.25.67.51 1.19.8 1.57l-2.98 1.21c-.29-.29-.56-.64-.8-1.04-.2-.36-.39-.79-.57-1.29-.18-.5-.29-1.1-.34-1.79-.38 1.34-.99 2.35-1.83 3.03-.84.68-1.97 1.02-3.4 1.02-1.05 0-1.96-.2-2.73-.59-.77-.39-1.41-.95-1.93-1.67-.51-.73-.89-1.6-1.14-2.63-.25-1.03-.37-2.17-.37-3.42 0-1.27.2-2.45.59-3.53a8.55 8.55 0 0 1 1.64-2.8c.7-.78 1.55-1.4 2.53-1.84.98-.45 2.06-.67 3.25-.67.67 0 1.37.05 2.09.15.73.1 1.4.21 2.03.32.62.11 1.16.22 1.59.32.43.1.69.16.75.18v7.91zm-6.13 5.02c.47-.38.88-.88 1.22-1.49.35-.61.61-1.32.8-2.11.19-.79.28-1.6.28-2.43v-4.82c-.22-.07-.56-.14-1-.23-.45-.09-.85-.13-1.21-.13-.85 0-1.55.15-2.09.44-.55.29-.99.69-1.32 1.21-.33.51-.57 1.13-.7 1.84-.13.71-.2 1.5-.2 2.34 0 .78.02 1.53.07 2.24.04.72.16 1.35.35 1.91.19.56.46 1 .82 1.32.36.32.84.49 1.44.49.56-.01 1.07-.2 1.54-.58zm10.62-13.63h3.82v15.88c0 1.34-.18 2.46-.54 3.35-.36.89-.81 1.65-1.36 2.26-.55.61-1.16 1.13-1.84 1.54-.68.41-1.36.79-2.03 1.12l-1.54-2.54c.83-.42 1.47-.88 1.94-1.36.47-.48.81-.96 1.04-1.44.22-.48.36-.94.42-1.39.06-.45.08-.84.08-1.17v-16.25zm3.6-6.8c.39.42.59.97.59 1.64 0 .67-.19 1.23-.59 1.67-.39.45-.98.67-1.76.67-.72 0-1.26-.22-1.64-.65-.38-.44-.57-.97-.57-1.59 0-.69.2-1.26.59-1.71.39-.45.97-.67 1.72-.67.72 0 1.27.22 1.66.64zm4.19 11.59c.41-1.14.98-2.09 1.71-2.86s1.58-1.35 2.56-1.74c.98-.39 2.04-.59 3.18-.59 1 0 1.86.12 2.56.37s1.28.58 1.72 1c.45.42.78.93.99 1.51.21.58.32 1.2.32 1.87 0 .8-.22 1.57-.67 2.29-.45.73-1.09 1.36-1.93 1.91-.84.55-1.85.98-3.03 1.31-1.18.32-2.51.5-3.98.52.07.51.17 1 .32 1.46.14.46.36.86.64 1.21s.64.62 1.09.82c.45.2 1.01.3 1.67.3.49 0 1.02-.06 1.57-.17.56-.11 1.07-.25 1.54-.4.56-.18 1.11-.38 1.64-.6l1 2.38c-.58.29-1.21.55-1.88.77-.58.2-1.25.38-2.01.54-.76.16-1.56.23-2.41.23-1.3 0-2.4-.19-3.32-.59-.92-.39-1.66-.94-2.24-1.66-.58-.71-1-1.57-1.27-2.58s-.4-2.12-.4-3.35c.01-1.5.21-2.81.63-3.95zm5.32-2.06c-.48.35-.87.79-1.16 1.34-.29.55-.5 1.16-.62 1.84-.12.68-.2 1.37-.22 2.06 1.07-.04 1.98-.18 2.73-.42.75-.23 1.36-.52 1.82-.87.47-.35.81-.72 1.02-1.12.21-.4.32-.8.32-1.21 0-.65-.19-1.17-.57-1.56-.38-.39-.88-.59-1.51-.59-.72.01-1.33.18-1.81.53z" class="st0"/></g></switch></svg>